<svg width="400" height="394" viewBox="0 0 400 394" fill="none" xmlns="http://www.w3.org/2000/svg">
<g clip-path="url(#clip0)">
<path class="atompath1" id="atompath1" d="M232.5 266C525.5 73.5 304 41.0001 168.5 125.5C168.5 125.5 -12.6065 241.205 35.5 298.5C80 351.5 232.5 266 232.5 266Z" stroke="#ACABB1" stroke-width="10"/>
<path class="atompath2" id="atompath2" d="M200 2.00002C303.5 17.5 298.5 375.5 200 390.5C110 390.5 88 26.5 200 2.00002Z" stroke="#D9D8DB" stroke-width="10"/>
<path class="atompath3" id="atompath3" d="M33 96.5C101.167 21.8333 415.1 207.8 367.5 297C289.5 379 -15.5 180 33 96.5Z" stroke="#C8C6CD" stroke-width="10"/>
<ellipse cx="177.548" cy="174.733" rx="22.5485" ry="22.6536" fill="#00A5FF"/>
<path d="M175.355 197.27C203.686 167.677 178.159 157.026 173.227 152.438C185.66 149.9 198.128 158.463 199.867 171.292C201.948 181.077 194.328 198.651 175.355 197.27Z" fill="#0C90EA"/>
<ellipse cx="222.645" cy="174.846" rx="22.5485" ry="22.6536" fill="#00A5FF"/>
<path d="M220.452 197.383C248.783 167.79 223.256 157.139 218.324 152.551C230.757 150.013 243.225 158.577 244.964 171.405C247.045 181.19 239.425 198.764 220.452 197.383Z" fill="#0C90EA"/>
<ellipse cx="223.157" cy="220.558" rx="22.5485" ry="22.6536" fill="#00A5FF"/>
<path d="M220.963 243.094C249.295 213.501 223.767 202.85 218.835 198.262C231.269 195.724 243.737 204.288 245.475 217.117C247.557 226.902 239.937 244.475 220.963 243.094Z" fill="#0C90EA"/>
<ellipse cx="176.562" cy="220.645" rx="22.5485" ry="22.6536" fill="#00A5FF"/>
<path d="M174.368 243.182C202.7 213.589 177.172 202.938 172.24 198.35C184.674 195.812 197.142 204.375 198.88 217.204C200.962 226.989 193.342 244.563 174.368 243.182Z" fill="#0C90EA"/>
<ellipse cx="200" cy="197.5" rx="28" ry="28.5" fill="#FF9A01"/>
<path d="M191 224.5C227.8 200.9 208 178 193 170C193.5 168.5 225.5 163.5 228.5 198.5C223.5 233.5 192 225.5 191 224.5Z" fill="#ED690F"/>
<path d="M194.582 192.028V185.881C194.582 185.881 194.582 181.838 200.049 181.838C205.5 182 205.515 185.881 205.515 185.881V192.028H212.446C212.446 192.028 215.662 191.931 215.622 197.474C215.583 203.016 212.446 202.919 212.446 202.919H205.515V209.231C205.515 209.231 206.034 213.083 200.049 213.068C194.064 213.054 194.582 209.231 194.582 209.231V202.919H188.312C188.312 202.919 185.105 202.997 185.052 197.474C185 191.951 188.312 192.028 188.312 192.028H194.582Z" fill="white"/>
<ellipse cx="308.409" cy="80.0772" rx="11.5132" ry="11.5319" fill="#FF3B63"/>
<path d="M310.03 80.5452C310.03 80.5452 310.359 72.1339 303.949 69.4411C312.365 66.207 319.825 72.5544 319.922 80.0399C320.022 87.7121 312.278 93.9493 303.828 90.6735C311.03 86.7613 310.03 80.5452 310.03 80.5452Z" fill="#DD365E"/>
<ellipse cx="251.592" cy="348.422" rx="11.5132" ry="11.5319" fill="#FF3B63"/>
<path d="M253.213 348.89C253.213 348.89 253.543 340.478 247.133 337.786C255.548 334.552 263.008 340.899 263.106 348.385C263.206 356.057 255.462 362.294 247.012 359.018C254.213 355.106 253.213 348.89 253.213 348.89Z" fill="#DD365E"/>
<ellipse cx="49.1536" cy="169.583" rx="11.5132" ry="11.5319" fill="#FF3B63"/>
<path d="M50.7746 170.051C50.7746 170.051 51.1038 161.64 44.6939 158.947C53.1094 155.713 60.5694 162.061 60.6668 169.546C60.7667 177.218 53.023 183.455 44.5727 180.18C51.7745 176.267 50.7746 170.051 50.7746 170.051Z" fill="#DD365E"/>
</g>
<g>  
<ellipse cx="308.409" cy="80.0772" rx="11.5132" ry="11.5319" fill="#FF3B63"/>
<path d="M310.03 80.5452C310.03 80.5452 310.359 72.1339 303.949 69.4411C312.365 66.207 319.825 72.5544 319.922 80.0399C320.022 87.7121 312.278 93.9493 303.828 90.6735C311.03 86.7613 310.03 80.5452 310.03 80.5452Z" fill="#DD365E"/>
<animateMotion begin="0s" dur="10s" rotate="auto" repeatCount="indefinite">
<mpath xlink:href="#atompath1"></mpath>
</animateMotion>
</g>
<defs>
<clipPath id="clip0">
<rect width="400" height="394" fill="white"/>
</clipPath>
</defs>
</svg>

